<svg xmlns="http://www.w3.org/2000/svg" xmlns:xlink="http://www.w3.org/1999/xlink" contentStyleType="text/css" data-diagram-type="CLASS" height="789px" preserveAspectRatio="none" style="width:560px;height:789px;background:#FFFFFF;" version="1.1" viewBox="0 0 560 789" width="560px" zoomAndPan="magnify"><title>Diagrama de contenedores en red "net-drupal"</title><defs/><g><g class="title" data-source-line="3"><text fill="#000000" font-family="sans-serif" font-size="14" font-weight="bold" lengthAdjust="spacing" textLength="371.6631" x="87.24" y="22.9951">Diagrama de contenedores en red "net-drupal"</text></g><!--cluster Red Docker: net-drupal--><g class="cluster" data-entity="Red Docker: net-drupal" data-source-line="17" data-uid="ent0002" id="cluster_Red Docker: net-drupal"><path d="M8.5,43.2969 L193.5166,43.2969 A3.75,3.75 0 0 1 196.0166,45.7969 L203.0166,65.5938 L375.5,65.5938 A2.5,2.5 0 0 1 378,68.0938 L378,779.7969 A2.5,2.5 0 0 1 375.5,782.2969 L8.5,782.2969 A2.5,2.5 0 0 1 6,779.7969 L6,45.7969 A2.5,2.5 0 0 1 8.5,43.2969" fill="none" style="stroke:#000000;stroke-width:1.5;"/><line style="stroke:#000000;stroke-width:1.5;" x1="6" x2="203.0166" y1="65.5938" y2="65.5938"/><text fill="#000000" font-family="sans-serif" font-size="14" font-weight="bold" lengthAdjust="spacing" textLength="184.0166" x="10" y="58.292">Red Docker: net-drupal</text></g><!--class postgres--><g class="entity" data-entity="postgres" data-source-line="19" data-uid="ent0003" id="entity_postgres"><rect fill="#F1F1F1" height="172.6719" rx="2.5" ry="2.5" style="stroke:#181818;stroke-width:0.5;" width="204.874" x="53.5" y="311.2969"/><ellipse cx="68.5" cy="389.6328" fill="#ADD1B2" rx="11" ry="11" style="stroke:#181818;stroke-width:1;"/><path d="M71.4688,395.2734 Q70.8906,395.5703 70.25,395.7109 Q69.6094,395.8672 68.9063,395.8672 Q66.4063,395.8672 65.0781,394.2266 Q63.7656,392.5703 63.7656,389.4453 Q63.7656,386.3203 65.0781,384.6641 Q66.4063,383.0078 68.9063,383.0078 Q69.6094,383.0078 70.25,383.1641 Q70.9063,383.3203 71.4688,383.6172 L71.4688,386.3359 Q70.8438,385.7578 70.25,385.4922 Q69.6563,385.2109 69.0313,385.2109 Q67.6875,385.2109 67,386.2891 Q66.3125,387.3516 66.3125,389.4453 Q66.3125,391.5391 67,392.6172 Q67.6875,393.6797 69.0313,393.6797 Q69.6563,393.6797 70.25,393.4141 Q70.8438,393.1328 71.4688,392.5547 L71.4688,395.2734 Z " fill="#000000"/><text fill="#000000" font-family="sans-serif" font-size="14" lengthAdjust="spacing" textLength="110.1543" x="113.8599" y="329.292">server-postgres</text><text fill="#000000" font-family="sans-serif" font-size="14" lengthAdjust="spacing" textLength="91.6768" x="123.0986" y="345.5889">(PostgreSQL)</text><text fill="#000000" font-family="sans-serif" font-size="14" lengthAdjust="spacing" textLength="4.4502" x="166.7119" y="361.8857">&#160;</text><text fill="#000000" font-family="sans-serif" font-size="14" lengthAdjust="spacing" textLength="150.917" x="93.4785" y="378.1826">Variables de entorno:</text><text fill="#000000" font-family="sans-serif" font-size="14" lengthAdjust="spacing" textLength="129.418" x="104.228" y="394.4795">- POSTGRES_USER</text><text fill="#000000" font-family="sans-serif" font-size="14" lengthAdjust="spacing" textLength="172.874" x="82.5" y="410.7764">- POSTGRES_PASSWORD</text><text fill="#000000" font-family="sans-serif" font-size="14" lengthAdjust="spacing" textLength="112.0957" x="112.8892" y="427.0732">- POSTGRES_DB</text><text fill="#000000" font-family="sans-serif" font-size="14" lengthAdjust="spacing" textLength="4.4502" x="166.7119" y="443.3701">&#160;</text><text fill="#000000" font-family="sans-serif" font-size="14" lengthAdjust="spacing" textLength="129.7119" x="104.0811" y="459.667">No mapea puertos</text><line style="stroke:#181818;stroke-width:0.5;" x1="54.5" x2="257.374" y1="467.9688" y2="467.9688"/><line style="stroke:#181818;stroke-width:0.5;" x1="54.5" x2="257.374" y1="475.9688" y2="475.9688"/></g><!--class pgadmin--><g class="entity" data-entity="pgadmin" data-source-line="21" data-uid="ent0004" id="entity_pgadmin"><rect fill="#F1F1F1" height="156.375" rx="2.5" ry="2.5" style="stroke:#181818;stroke-width:0.5;" width="266.8486" x="93.5" y="78.2969"/><ellipse cx="108.5" cy="148.4844" fill="#ADD1B2" rx="11" ry="11" style="stroke:#181818;stroke-width:1;"/><path d="M111.4688,154.125 Q110.8906,154.4219 110.25,154.5625 Q109.6094,154.7188 108.9063,154.7188 Q106.4063,154.7188 105.0781,153.0781 Q103.7656,151.4219 103.7656,148.2969 Q103.7656,145.1719 105.0781,143.5156 Q106.4063,141.8594 108.9063,141.8594 Q109.6094,141.8594 110.25,142.0156 Q110.9063,142.1719 111.4688,142.4688 L111.4688,145.1875 Q110.8438,144.6094 110.25,144.3438 Q109.6563,144.0625 109.0313,144.0625 Q107.6875,144.0625 107,145.1406 Q106.3125,146.2031 106.3125,148.2969 Q106.3125,150.3906 107,151.4688 Q107.6875,152.5313 109.0313,152.5313 Q109.6563,152.5313 110.25,152.2656 Q110.8438,151.9844 111.4688,151.4063 L111.4688,154.125 Z " fill="#000000"/><text fill="#000000" font-family="sans-serif" font-size="14" lengthAdjust="spacing" textLength="112.9023" x="183.4731" y="96.292">cliente-postgres</text><text fill="#000000" font-family="sans-serif" font-size="14" lengthAdjust="spacing" textLength="73.5615" x="203.1436" y="112.5889">(pgAdmin)</text><text fill="#000000" font-family="sans-serif" font-size="14" lengthAdjust="spacing" textLength="4.4502" x="237.6992" y="128.8857">&#160;</text><text fill="#000000" font-family="sans-serif" font-size="14" lengthAdjust="spacing" textLength="135.2422" x="172.3032" y="145.1826">Puertos mapeados:</text><text fill="#000000" font-family="sans-serif" font-size="14" lengthAdjust="spacing" textLength="67.6621" x="206.0933" y="161.4795">- 9500:80</text><text fill="#000000" font-family="sans-serif" font-size="14" lengthAdjust="spacing" textLength="150.917" x="164.4658" y="177.7764">Variables de entorno:</text><text fill="#000000" font-family="sans-serif" font-size="14" lengthAdjust="spacing" textLength="196.1162" x="141.8662" y="194.0732">- PGADMIN_DEFAULT_EMAIL</text><text fill="#000000" font-family="sans-serif" font-size="14" lengthAdjust="spacing" textLength="234.8486" x="122.5" y="210.3701">- PGADMIN_DEFAULT_PASSWORD</text><line style="stroke:#181818;stroke-width:0.5;" x1="94.5" x2="359.3486" y1="218.6719" y2="218.6719"/><line style="stroke:#181818;stroke-width:0.5;" x1="94.5" x2="359.3486" y1="226.6719" y2="226.6719"/></g><!--class drupal--><g class="entity" data-entity="drupal" data-source-line="23" data-uid="ent0005" id="entity_drupal"><rect fill="#F1F1F1" height="205.2656" rx="2.5" ry="2.5" style="stroke:#181818;stroke-width:0.5;" width="339.3027" x="22.5" y="561.2969"/><ellipse cx="37.5" cy="655.9297" fill="#ADD1B2" rx="11" ry="11" style="stroke:#181818;stroke-width:1;"/><path d="M40.4688,661.5703 Q39.8906,661.8672 39.25,662.0078 Q38.6094,662.1641 37.9063,662.1641 Q35.4063,662.1641 34.0781,660.5234 Q32.7656,658.8672 32.7656,655.7422 Q32.7656,652.6172 34.0781,650.9609 Q35.4063,649.3047 37.9063,649.3047 Q38.6094,649.3047 39.25,649.4609 Q39.9063,649.6172 40.4688,649.9141 L40.4688,652.6328 Q39.8438,652.0547 39.25,651.7891 Q38.6563,651.5078 38.0313,651.5078 Q36.6875,651.5078 36,652.5859 Q35.3125,653.6484 35.3125,655.7422 Q35.3125,657.8359 36,658.9141 Q36.6875,659.9766 38.0313,659.9766 Q38.6563,659.9766 39.25,659.7109 Q39.8438,659.4297 40.4688,658.8516 L40.4688,661.5703 Z " fill="#000000"/><text fill="#000000" font-family="sans-serif" font-size="14" lengthAdjust="spacing" textLength="94.2402" x="158.0313" y="579.292">server-drupal</text><text fill="#000000" font-family="sans-serif" font-size="14" lengthAdjust="spacing" textLength="57.6885" x="176.3071" y="595.5889">(Drupal)</text><text fill="#000000" font-family="sans-serif" font-size="14" lengthAdjust="spacing" textLength="4.4502" x="202.9263" y="611.8857">&#160;</text><text fill="#000000" font-family="sans-serif" font-size="14" lengthAdjust="spacing" textLength="135.2422" x="137.5303" y="628.1826">Puertos mapeados:</text><text fill="#000000" font-family="sans-serif" font-size="14" lengthAdjust="spacing" textLength="67.6621" x="171.3203" y="644.4795">- 9700:80</text><text fill="#000000" font-family="sans-serif" font-size="14" lengthAdjust="spacing" textLength="202.6787" x="103.812" y="660.7764">Conectado a server-postgres</text><text fill="#000000" font-family="sans-serif" font-size="14" lengthAdjust="spacing" textLength="82.6533" x="163.8247" y="677.0732">Vol&#250;menes:</text><text fill="#000000" font-family="sans-serif" font-size="14" lengthAdjust="spacing" textLength="307.3027" x="51.5" y="693.3701">- drupal-modules &#8594; /var/www/html/modules</text><text fill="#000000" font-family="sans-serif" font-size="14" lengthAdjust="spacing" textLength="291.4297" x="59.4365" y="709.667">- drupal-profiles &#8594; /var/www/html/profiles</text><text fill="#000000" font-family="sans-serif" font-size="14" lengthAdjust="spacing" textLength="252.9434" x="78.6797" y="725.9639">- drupal-sites &#8594; /var/www/html/sites</text><text fill="#000000" font-family="sans-serif" font-size="14" lengthAdjust="spacing" textLength="292.8242" x="58.7393" y="742.2607">- drupal-themes &#8594; /var/www/html/themes</text><line style="stroke:#181818;stroke-width:0.5;" x1="23.5" x2="360.8027" y1="750.5625" y2="750.5625"/><line style="stroke:#181818;stroke-width:0.5;" x1="23.5" x2="360.8027" y1="758.5625" y2="758.5625"/></g><g class="entity" data-entity="GMN10" data-source-line="34" data-uid="ent0011" id="entity_GMN10"><path d="M395.5,136.2969 L395.5,152.2969 L360.63,156.2969 L395.5,160.2969 L395.5,176.5625 A0,0 0 0 0 395.5,176.5625 L552.1431,176.5625 A0,0 0 0 0 552.1431,176.5625 L552.1431,146.2969 L542.1431,136.2969 L395.5,136.2969 A0,0 0 0 0 395.5,136.2969" fill="#F9F9F9" style="stroke:#999999;stroke-width:0.5;"/><path d="M542.1431,136.2969 L542.1431,146.2969 L552.1431,146.2969 L542.1431,136.2969" fill="#F9F9F9" style="stroke:#999999;stroke-width:0.5;"/><text fill="#000000" font-family="sans-serif" font-size="13" lengthAdjust="spacing" textLength="125.8931" x="401.5" y="153.3638">Acceso desde host:</text><text fill="#000000" font-family="sans-serif" font-size="13" lengthAdjust="spacing" textLength="135.6431" x="401.5" y="168.4966">http://localhost:9500</text></g><g class="entity" data-entity="GMN13" data-source-line="39" data-uid="ent0014" id="entity_GMN13"><path d="M396.5,643.7969 L396.5,659.7969 L361.69,663.7969 L396.5,667.7969 L396.5,684.0625 A0,0 0 0 0 396.5,684.0625 L553.1431,684.0625 A0,0 0 0 0 553.1431,684.0625 L553.1431,653.7969 L543.1431,643.7969 L396.5,643.7969 A0,0 0 0 0 396.5,643.7969" fill="#F9F9F9" style="stroke:#999999;stroke-width:0.5;"/><path d="M543.1431,643.7969 L543.1431,653.7969 L553.1431,653.7969 L543.1431,643.7969" fill="#F9F9F9" style="stroke:#999999;stroke-width:0.5;"/><text fill="#000000" font-family="sans-serif" font-size="13" lengthAdjust="spacing" textLength="125.8931" x="402.5" y="660.8638">Acceso desde host:</text><text fill="#000000" font-family="sans-serif" font-size="13" lengthAdjust="spacing" textLength="135.6431" x="402.5" y="675.9966">http://localhost:9700</text></g><!--link postgres to pgadmin--><!--link pgadmin to postgres--><g class="link" data-entity-1="pgadmin" data-entity-2="postgres" data-source-line="31" data-uid="lnk9" id="link_pgadmin_postgres"><path codeLine="31" d="M110.84,234.5369 C103.01,243.6969 96.18,253.6269 91,264.2969 C83.67,279.3969 82.4768,289.7335 87.5468,305.2535" fill="none" id="pgadmin-to-postgres" style="stroke:#181818;stroke-width:1;"/><polygon fill="#181818" points="89.41,310.9569,90.4175,301.1597,87.8574,306.2041,82.813,303.6439,89.41,310.9569" style="stroke:#181818;stroke-width:1;"/><text fill="#000000" font-family="sans-serif" font-size="13" lengthAdjust="spacing" textLength="213.4653" x="92" y="277.3638">Administraci&#243;n de base de datos</text></g><!--link postgres to drupal--><!--link drupal to postgres--><g class="link" data-entity-1="drupal" data-entity-2="postgres" data-source-line="30" data-uid="lnk8" id="link_drupal_postgres"><path codeLine="30" d="M178.11,560.9569 C174.67,535.7069 171.8193,514.842 168.4993,490.452" fill="none" id="drupal-to-postgres" style="stroke:#181818;stroke-width:1;"/><polygon fill="#181818" points="167.69,484.5069,164.9404,493.9641,168.3644,489.4612,172.8673,492.8851,167.69,484.5069" style="stroke:#181818;stroke-width:1;"/><text fill="#000000" font-family="sans-serif" font-size="13" lengthAdjust="spacing" textLength="184.2534" x="175" y="527.3638">Conexi&#243;n a la base de datos</text></g><!--SRC=[ZLDBRjim4Dtp55DdqNOXs4LGfFQYW1AfGG0dSQry5dKHJCInH8GY1PAE2nJPzW2zIdRT-YOzIKd93XJN3Ge10Z7pvisRn-4hJdEX2ARfqKLyTZnE8PTeBMDEE4cG22mCLWYS8DVAaIAk3LaW1OOuz1IvY9j5ZRB7s6j8hHDImxsm2vJCtWbLew_tsDoXAZpZTmPmYFbTOVH2yICjjO7hKZWASMqucJQsjx-_xqFJ5cKK6NWty86iHAwNGXNWp8BOGwU9qcut_zvy6Bxj3iFXqDUpsgEn8EXD_K29pk_8ZA0pbwSCGfuCwbaozsIYMbjNU2zcwisaFMQVnszdQgQkq0YybTucRnifv-NhqKn5C3dFBewdQNPpcQNJPu59d6NNvzFaMJ0v36nd6Ygi2Q5Ua77QzW0jR9flISkbyFsegwqkObu9rGYRj0mj7zUs4JLyFnYCFWnUadqS9wSdPpT9-Yc-75_SfAVnoNXNOZD5Ax70q7YtUQstNbxI75vGTx1MTwHLM2Ak0U6l6xZISlMhyjlP5hNiKQNv8epp-yTFwD-ZwI-NotxfAjbVPphOskYvs0tUf3fewnTs5xI9Tt2kf6edi4qqFhNGODDc7eY-b89pKb-ZZqys_YEzhdu8hozOz4tudmMvUYn4ZfQrUOW2qwP-j4Qk7fKtKoBSegLmwHoz_spTSRkcMIDXdS6ygVJuvtMiUO165AK3FNyI7kSvMUrXrYDBppTYfNFrgD-NEaVPHC8ECbAyUSFRHEiH_uldeCFp1m00]--></g></svg>